<svg version="1.1" viewBox="0.0 0.0 50.0 50.0" fill="none" stroke="none" stroke-linecap="square" stroke-miterlimit="10" xmlns:xlink="http://www.w3.org/1999/xlink" xmlns="http://www.w3.org/2000/svg"><clipPath id="p.0"><path d="m0 0l50.0 0l0 50.0l-50.0 0l0 -50.0z" clip-rule="nonzero"/></clipPath><g clip-path="url(#p.0)"><path fill="#000000" fill-opacity="0.0" d="m0 0l50.0 0l0 50.0l-50.0 0z" fill-rule="evenodd"/><path fill="#000000" fill-opacity="0.0" d="m3.5826771 25.0l0 0c0 -11.828461 9.588862 -21.417322 21.417322 -21.417322l0 0c5.6802273 0 11.127808 2.2564614 15.144333 6.2729893c4.016529 4.016527 6.272991 9.464107 6.272991 15.144334l0 0c0 11.828461 -9.588863 21.417324 -21.417324 21.417324l0 0c-11.828461 0 -21.417322 -9.588863 -21.417322 -21.417324z" fill-rule="evenodd"/><path stroke="#673f96" stroke-width="2.0" stroke-linejoin="round" stroke-linecap="butt" d="m3.5826771 25.0l0 0c0 -11.828461 9.588862 -21.417322 21.417322 -21.417322l0 0c5.6802273 0 11.127808 2.2564614 15.144333 6.2729893c4.016529 4.016527 6.272991 9.464107 6.272991 15.144334l0 0c0 11.828461 -9.588863 21.417324 -21.417324 21.417324l0 0c-11.828461 0 -21.417322 -9.588863 -21.417322 -21.417324z" fill-rule="evenodd"/><path fill="#673f96" d="m34.637794 25.0l0 0c0 -5.3228073 -4.314987 -9.637795 -9.6377945 -9.637795l0 0c-2.5561028 0 -5.007513 1.0154085 -6.814951 2.8228445c-1.807436 1.8074379 -2.8228445 4.258848 -2.8228445 6.814951l0 0c0 5.3228073 4.314988 9.6377945 9.637795 9.6377945l0 0c5.3228073 0 9.6377945 -4.314987 9.6377945 -9.6377945z" fill-rule="evenodd"/><path fill="#673f96" d="m14.488189 40.225723l0 0c0 -2.8092613 -2.2773542 -5.0866165 -5.0866137 -5.0866165l0 0c-1.3490543 0 -2.6428547 0.53591156 -3.5967798 1.4898338c-0.95392513 0.9539261 -1.4898348 2.2477264 -1.4898348 3.5967827l0 0c0 2.8092575 2.2773547 5.0866127 5.0866146 5.0866127l0 0c2.8092594 0 5.0866137 -2.2773552 5.0866137 -5.0866127z" fill-rule="evenodd"/><path stroke="#ffffff" stroke-width="2.0" stroke-linejoin="round" stroke-linecap="butt" d="m14.488189 40.225723l0 0c0 -2.8092613 -2.2773542 -5.0866165 -5.0866137 -5.0866165l0 0c-1.3490543 0 -2.6428547 0.53591156 -3.5967798 1.4898338c-0.95392513 0.9539261 -1.4898348 2.2477264 -1.4898348 3.5967827l0 0c0 2.8092575 2.2773547 5.0866127 5.0866146 5.0866127l0 0c2.8092594 0 5.0866137 -2.2773552 5.0866137 -5.0866127z" fill-rule="evenodd"/></g></svg>